HIERARCHY
ROOT Hips
{
  OFFSET 265.287 66.7526 -254.649
  CHANNELS 6 Xposition Yposition Zposition Zrotation Xrotation Yrotation
  JOINT LeftUpLeg
  {
    OFFSET 8.64259 1.95398 -2.38835
    CHANNELS 3 Zrotation Xrotation Yrotation
    JOINT LeftLeg
    {
      OFFSET 43.7702 0 0
      CHANNELS 3 Zrotation Xrotation Yrotation
      JOINT LeftFoot
      {
        OFFSET 40.6238 0 0
        CHANNELS 3 Zrotation Xrotation Yrotation
        JOINT LeftToeBase
        {
          OFFSET 12.7242 0 0
          CHANNELS 3 Zrotation Xrotation Yrotation
          End Site
          {
            OFFSET 0 0 0
          }
        }
      }
    }
  }
  JOINT RightUpLeg
  {
    OFFSET -8.2249 1.95398 -2.59336
    CHANNELS 3 Zrotation Xrotation Yrotation
    JOINT RightLeg
    {
      OFFSET 43.5653 0 0
      CHANNELS 3 Zrotation Xrotation Yrotation
      JOINT RightFoot
      {
        OFFSET 40.6238 0 0
        CHANNELS 3 Zrotation Xrotation Yrotation
        JOINT RightToeBase
        {
          OFFSET 12.7242 0 0
          CHANNELS 3 Zrotation Xrotation Yrotation
          End Site
          {
            OFFSET 0 0 0
          }
        }
      }
    }
  }
  JOINT Spine
  {
    OFFSET 0.165834 0.87714 6.61349
    CHANNELS 3 Zrotation Xrotation Yrotation
    JOINT Spine1
    {
      OFFSET 7.38963 1.71661e-005 0
      CHANNELS 3 Zrotation Xrotation Yrotation
      JOINT Spine2
      {
        OFFSET 11.9445 1.14441e-005 0
        CHANNELS 3 Zrotation Xrotation Yrotation
        JOINT Spine3
        {
          OFFSET 14.7254 4.19617e-005 0
          CHANNELS 3 Zrotation Xrotation Yrotation
          JOINT Spine4
          {
            OFFSET 10.9679 0 0
            CHANNELS 3 Zrotation Xrotation Yrotation
            JOINT RightShoulder
            {
              OFFSET 2.46616 -1.6653 3.69651
              CHANNELS 3 Zrotation Xrotation Yrotation
              JOINT RightArm
              {
                OFFSET 13.0012 0 0
                CHANNELS 3 Zrotation Xrotation Yrotation
                JOINT RightForeArm
                {
                  OFFSET 28.7848 1.52588e-005 0
                  CHANNELS 3 Zrotation Xrotation Yrotation
                  JOINT RightHand
                  {
                    OFFSET 26.5688 1.52588e-005 0
                    CHANNELS 3 Zrotation Xrotation Yrotation
                    End Site
                    {
                      OFFSET 0 0 0
                    }
                  }
                }
              }
            }
            JOINT LeftShoulder
            {
              OFFSET 2.38034 -1.29275 -3.7523
              CHANNELS 3 Zrotation Xrotation Yrotation
              JOINT LeftArm
              {
                OFFSET 16.3182 6.10351e-005 0
                CHANNELS 3 Zrotation Xrotation Yrotation
                JOINT LeftForeArm
                {
                  OFFSET 27.0901 0 0
                  CHANNELS 3 Zrotation Xrotation Yrotation
                  JOINT LeftHand
                  {
                    OFFSET 24.5451 1.52588e-005 0
                    CHANNELS 3 Zrotation Xrotation Yrotation
                    End Site
                    {
                      OFFSET 0 0 0
                    }
                  }
                }
              }
            }
            JOINT Neck
            {
              OFFSET 5.0226 -0.0266342 0
              CHANNELS 3 Zrotation Xrotation Yrotation
              JOINT Head
              {
                OFFSET 6.69364 2.86102e-005 0
                CHANNELS 3 Zrotation Xrotation Yrotation
                End Site
                {
                  OFFSET 0 0 0
                }
              }
            }
          }
        }
      }
    }
  }
}
MOTION
Frames:	14
Frame Time:	0.0416667
270.47 64.4453 259.319 -96.3278 50.7774 -72.219 -123.45 -25.0244 156.31 -126.145 -20.6755 -104.276 80.7367 -18.379 -14.7314 156.831 36.2387 59.2189 143.436 -19.7407 22.5361 -165.523 -3.11492 77.5248 153.313 -33.8567 81.368 130.916 40.5871 58.8153 10.7661 11.2152 -94.489 5.10867 19.6609 -9.15962 -6.44701 19.2402 -10.0381 -30.1992 21.4661 -2.57783 -10.1865 21.4661 -2.57782 114.532 -14.7559 -49.2665 87.8363 37.1029 12.2373 -6.56692 12.9173 -151.346 -6.38462 3.41511 -66.7483 90.3137 -55.641 -91.3792 -107.08 7.13509 -6.93244 -144.222 63.8746 179.908 17.7079 2.76003 11.6284 -94.0596 -26.6879 86.8575 1.72656 80.719 70.439 
270.94 64.3244 259.758 -96.2389 50.7945 -71.9666 -122.814 -23.9592 157.178 -125.68 -19.5507 -103.325 81.8745 -18.2176 -15.1215 155.649 36.5467 59.9811 144.034 -21.0238 22.1999 -163.901 -3.38778 77.8955 153.52 -36.7594 82.5836 130.2 40.6946 59.4082 10.7947 11.1861 -94.4945 5.17297 19.7133 -9.18877 -6.38213 19.2912 -10.0697 -30.141 21.5245 -2.58785 -10.1284 21.5245 -2.58785 114.652 -15.0336 -49.1463 87.9297 36.7028 11.9636 -6.36928 12.6816 -151.392 -6.42547 3.4121 -66.3459 90.2431 -55.706 -91.4352 -107.187 7.04177 -6.79323 -144.613 64.9364 179.904 16.4676 2.68719 12.2602 -94.0851 -26.699 87.0905 3.86154 81.1413 68.2247 
272.32 63.9755 261.048 -95.985 50.8408 -71.2297 -120.941 -20.7548 159.507 -124.484 -16.3624 -100.761 85.2239 -17.6398 -16.2961 152.228 37.2908 62.1663 145.872 -24.7882 21.5702 -158.853 -4.06307 79.208 153.507 -44.8167 85.8228 128.297 40.9008 60.9344 10.8762 11.1009 -94.5093 5.36107 19.8627 -9.2725 -6.1923 19.4369 -10.1604 -29.9706 21.6912 -2.61687 -9.95794 21.6913 -2.61687 115.006 -15.8475 -48.7993 88.1718 35.5419 11.1907 -5.87537 12.1261 -151.504 -6.60362 3.43877 -65.2168 90.0469 -55.9034 -91.5926 -107.494 6.78397 -6.40011 -145.753 67.629 179.893 12.6936 2.37735 14.1271 -94.1282 -26.715 87.7652 10.9806 82.2338 60.9062 
274.6 63.427 263.18 -95.5883 50.9064 -70.0361 -117.826 -15.2776 162.607 -122.997 -11.4757 -97.1695 90.7845 -16.4049 -18.3788 146.795 38.0503 65.5571 149.247 -30.8904 21.728 -149.953 -4.52845 81.9312 150.375 -56.5938 88.6248 125.778 41.0106 62.8513 11.003 10.9621 -94.5303 5.66746 20.0954 -9.4039 -5.88319 19.6636 -10.3027 -29.692 21.9512 -2.66286 -9.67934 21.9511 -2.66288 115.587 -17.1774 -48.2476 88.478 33.6797 10.0081 -5.27962 11.5523 -151.64 -7.04051 3.56669 -63.5239 89.7574 -56.2454 -91.8311 -107.976 6.4049 -5.7975 -147.547 70.9319 179.876 6.31937 1.55384 16.9995 -94.1026 -26.7015 88.8456 25.6008 83.5276 46.0599 
277.809 62.7323 266.174 -95.0707 50.979 -68.4127 -113.388 -7.37762 165.364 -121.924 -5.36367 -93.1319 98.6645 -14.3767 -21.8733 139.659 38.3418 69.8222 155.027 -39.0015 24.5288 -137.221 -3.34036 86.1719 131.847 -69.4008 78.6539 123.204 41.0073 64.7586 11.166 10.7715 -94.5527 6.08786 20.3943 -9.57436 -5.45928 19.9548 -10.4872 -29.3079 22.2855 -2.72316 -9.29522 22.2855 -2.72318 116.395 -19.012 -47.5141 88.745 31.1762 8.51152 -4.73868 11.1925 -151.769 -7.83633 3.84355 -61.4616 89.416 -56.7511 -92.1248 -108.611 5.95671 -5.03619 -149.801 74.0223 179.853 -2.29778 -0.0742663 20.196 -93.8891 -26.624 90.3007 49.8529 84.2397 21.6554 
281.986 61.9842 270.058 -94.4518 51.0445 -66.3924 -107.413 2.74126 166.161 -108.856 0.22593 -90.4883 114.351 -6.31082 -15.3947 131.213 37.7738 74.5228 175.714 -30.0732 47.6568 -92.5082 6.74418 57.9094 36.0194 -23.1317 -8.17544 120.793 41.1455 66.7681 11.3545 10.5312 -94.5713 6.61719 20.7402 -9.77372 -4.92579 20.2918 -10.7028 -28.8213 22.6731 -2.79447 -8.80865 22.6731 -2.7945 117.434 -21.3435 -46.6217 88.8663 28.0968 6.78934 -4.33122 11.1392 -151.877 -9.03526 4.27786 -59.2188 89.0691 -57.4398 -92.4443 -109.378 5.49495 -4.16922 -152.281 76.6612 179.827 -12.2291 -2.48455 22.8841 -93.361 -26.4526 92.1145 76.6823 83.6517 -5.18886 
287.162 61.3226 274.846 -93.7469 51.0889 -64.0216 -99.5206 13.9128 162.818 -45.0091 7.29095 -95.4027 108.77 27.1392 35.6133 121.901 36.1105 79.1585 -174.88 -19.1151 83.035 -79.5596 18.8252 8.21523 25.8239 32.9092 13.095 118.59 41.9464 69.4351 11.5567 10.2444 -94.5805 7.24792 21.1115 -9.99057 -4.29056 20.6533 -10.9371 -28.2374 23.0897 -2.87315 -8.22479 23.0897 -2.87317 118.709 -24.1562 -45.5919 88.7452 24.5216 4.91683 -4.08404 11.3872 -151.951 -10.6365 4.85385 -56.9639 88.7657 -58.3258 -92.7573 -110.258 5.07535 -3.25032 -154.813 79.0365 179.808 -22.2164 -5.27408 24.6544 -92.4099 -26.1584 94.2902 95.5261 81.911 -23.8948 
293.329 60.8963 280.553 -92.9667 51.1008 -61.3664 -88.5818 23.2993 152.652 -57.4888 12.2057 -97.9865 126.86 35.7869 6.90529 112.228 33.2694 83.1688 -159.308 -29.7602 109.43 -63.4875 18.0841 -4.51817 -18.0977 78.1528 49.5569 119.043 43.9667 71.3349 11.76 9.91552 -94.5762 7.96939 21.4846 -10.2142 -3.56451 21.0163 -11.1783 -27.564 23.5101 -2.95707 -7.55135 23.51 -2.95707 120.221 -27.4104 -44.4426 88.3046 20.5568 2.95795 -3.99923 11.8823 -151.977 -12.6079 5.54674 -54.8378 88.5535 -59.4106 -93.0296 -111.229 4.74734 -2.33056 -157.283 81.4122 179.779 -31.0993 -7.9667 25.7264 -90.976 -25.7069 96.8316 106.412 79.5673 -34.5196 
300.53 60.6458 287.333 -92.1179 51.0728 -58.5091 -78.5715 37.6254 136.089 -62.5192 20.3819 -88.8478 143.143 42.5467 -2.87359 102.79 29.3516 85.9231 -115.222 -46.7988 165.685 179.772 -4.95996 -132.986 7.01193 -46.5897 -4.8788 129.856 45.0494 63.9963 11.9534 9.5494 -94.558 8.77049 21.8377 -10.4406 -2.75917 21.3592 -11.4213 -26.8091 23.9122 -3.04998 -6.79646 23.9122 -3.04998 121.959 -31.0226 -43.185 87.4995 16.3406 0.972572 -4.07098 12.558 -151.935 -14.8986 6.33495 -52.9447 88.4658 -60.6724 -93.2327 -112.264 4.53859 -1.44953 -159.63 83.9071 179.72 -38.2414 -10.332 26.5865 -89.094 -25.05 99.6921 112.67 76.9441 -40.4536 
308.692 60.5252 295.109 -91.2051 51.002 -55.5383 -61.0039 45.9091 108.365 -70.2359 22.8266 -75.0362 160.91 45.6304 -12.8564 94.1013 24.7046 86.9728 -95.2231 -25.7554 167.965 -7.99756 -23.4138 -20.4702 142.34 -29.1249 161.62 143.598 41.3851 51.5478 12.1305 9.1494 -94.5318 9.64464 22.1546 -10.679 -1.88147 21.6656 -11.6745 -25.9766 24.2836 -3.16674 -5.96394 24.2836 -3.16674 123.899 -34.8485 -41.8196 86.3306 12.0419 -0.974952 -4.29369 13.3568 -151.8 -17.4495 7.20496 -51.353 88.5092 -62.0584 -93.3529 -113.319 4.43938 -0.627198 -161.752 86.5225 179.565 -43.552 -12.3567 27.5605 -86.9244 -24.1372 102.717 116.394 74.2113 -43.8666 
317.396 60.7442 303.391 -90.2344 50.8908 -52.543 -43.7498 43.4087 78.3801 -71.1303 19.0045 -62.9904 173.896 49.1098 -20.1579 86.3856 19.8386 86.3282 -85.0626 2.39527 164.265 -0.864395 -39.9253 -1.32106 65.6739 -59.929 87.7158 150.659 36.9062 44.2224 12.2905 8.71491 -94.5112 10.594 22.4274 -10.9559 -0.929696 21.9262 -11.9638 -25.0622 24.6248 -3.33576 -5.0496 24.6247 -3.33577 126.001 -38.6746 -40.3314 84.8582 7.85587 -2.80825 -4.66335 14.235 -151.549 -20.1968 8.15049 -50.1031 88.6537 -63.4838 -93.3998 -114.336 4.39067 0.140325 -162.557 89.239 178.258 -47.2536 -14.0892 28.7478 -84.7625 -22.9499 105.614 118.65 71.5286 -45.8951 
326.282 61.32 311.809 -89.2163 50.7461 -49.6066 -37.1171 35.1213 56.3958 -63.4956 12.1356 -52.6049 -179.934 53.9001 -24.8299 79.5878 15.2342 84.3978 -78.1676 28.7676 163.614 -0.179841 -39.8219 -0.126713 31.6576 -36.2127 48.8352 153.877 33.7605 40.4648 12.4382 8.24365 -94.5118 11.6263 22.6564 -11.3043 0.103429 22.1399 -12.3221 -24.0573 24.9459 -3.58912 -4.04469 24.9459 -3.58912 128.216 -42.264 -38.6917 83.1935 3.96989 -4.45431 -5.17676 15.157 -151.157 -23.0751 9.17194 -49.2138 88.8413 -64.8544 -93.4048 -115.252 4.29603 0.874992 13.2092 87.9496 0.571712 -49.6892 -15.5713 30.1097 -82.954 -21.524 108.029 119.99 69.0714 -47.1474 
335.156 62.1301 320.174 -88.1659 50.5777 -46.7974 -40.0797 26.5151 40.1845 -47.8411 4.18155 -40.233 177.157 59.638 -25.0029 73.5195 11.1857 81.7661 -70.0543 51.0657 159.225 -0.154273 -30.6881 -0.0913798 24.9223 -20.3454 39.5191 155.546 31.6519 38.3166 12.5763 7.73798 -94.5391 12.7372 22.8433 -11.7335 1.21348 22.3082 -12.7586 -22.9655 25.2513 -3.93531 -2.95289 25.2513 -3.93529 130.522 -45.4834 -36.8725 81.4423 0.494043 -5.88757 -5.82986 16.0809 -150.597 -26.0242 10.2752 -48.6865 89.0327 -66.1194 -93.3923 -116.033 4.09143 1.58566 11.844 85.0727 0.21838 -51.191 -16.8282 31.5599 -81.673 -19.9117 109.792 120.743 66.9272 -47.9794 
343.917 63.0554 328.384 -87.1026 50.3961 -44.164 -52.2249 19.3707 24.5171 -19.4953 -3.53431 -17.4275 154.093 63.5778 -11.2648 68.0001 7.7657 78.9026 -57.3897 66.8868 148.531 -0.0987791 -19.5709 -0.0211175 22.2888 -12.97 36.1906 156.588 30.0848 36.8628 11.0745 8.79004 -92.7058 10.0102 20.8492 -7.0887 -1.51064 20.5172 -8.03295 -25.4646 21.9707 -0.186341 -5.45193 21.9707 -0.186339 137.942 -66.1421 -37.0347 70.1509 -11.5133 -12.3181 -6.36014 13.4281 -149.057 -29.1696 11.5257 -48.452 96.4953 -72.9679 -87.837 -120.595 17.1113 -3.93792 -168.654 88.2992 179.413 -51.5732 -17.9312 33.486 132.961 19.347 34.1872 50.8116 -51.7578 136.759 
